<svg height="15" viewBox="0 0 16 15" width="16" xmlns="http://www.w3.org/2000/svg"><g fill="none"><path d="m15.214 0-6.253 4.69 1.159-2.76zm-14.418 0 6.191 4.733-1.106-2.804zm12.166 10.868-1.664 2.583 3.555.99 1.023-3.51zm-12.828.063 1.013 3.51 3.556-.99-1.654-2.583z" fill="#e27625"/><path d="m4.506 6.525-.982 1.507 3.525.159-.124-3.837zm6.988.001-2.45-2.214-.084 3.878 3.525-.158zm-6.791 6.924 2.129-1.043-1.83-1.455zm4.465-1.043 2.13 1.044-.29-2.499z" fill="#e27625"/><path d="m11.297 13.45-2.13-1.043.177 1.391-.021.601zm-6.594 0 1.974.95-.01-.602.165-1.391z" fill="#d7c1b3"/><path d="m6.718 10.025-1.767-.527 1.25-.58zm2.574 0 .517-1.107 1.25.58z" fill="#2f343b"/><path d="m4.703 13.45.31-2.582-1.964.063zm6.295-2.582.3 2.583 1.664-2.52zm1.488-2.835-3.526.157.33 1.834.518-1.107 1.25.58zm-7.536 1.465 1.251-.58.517 1.107.331-1.834-3.525-.158z" fill="#cc6228"/><path d="m3.524 8.033 1.478 2.92-.051-1.455zm7.536 1.465-.052 1.455 1.478-2.92zm-4.011-1.308-.33 1.835.413 2.16.093-2.846zm1.912 0-.175 1.14.093 2.856.413-2.16z" fill="#e27625"/><path d="m9.292 10.025-.413 2.16.289.222 1.84-1.455.051-1.454zm-4.342-.527.053 1.454 1.829 1.455.3-.221-.414-2.161z" fill="#f5841f"/><path d="m9.323 14.4.02-.602-.155-.137h-2.367l-.155.137.01.601-1.973-.949.692.57 1.406.98h2.398l1.416-.98.682-.57z" fill="#c0ad9e"/><path d="m9.168 12.407-.29-.221h-1.746l-.3.221-.166 1.392.156-.137h2.366l.155.137z" fill="#2f343b"/><path d="m15.473 4.997.527-2.594-.786-2.403-6.046 4.533 2.325 1.992 3.287.96.724-.855-.32-.231.506-.464-.383-.295.497-.39zm-15.473-2.594.537 2.594-.34.253.506.39-.383.295.497.464-.31.231.723.854 3.277-.959 2.325-1.992-6.036-4.533z" fill="#763e1a"/><path d="m14.78 7.485-3.286-.96.992 1.508-1.478 2.92 1.953-.022h2.915zm-10.273-.96-3.277.96-1.096 3.445h2.916l1.954.022-1.478-2.92zm4.454 1.665.207-3.657.95-2.604h-4.236l.95 2.604.218 3.657.072 1.16.01 2.836h1.747v-2.836z" fill="#f5841f"/></g></svg>