<svg height="14" viewBox="0 0 14 14" width="14" xmlns="http://www.w3.org/2000/svg"><path d="m4.5 8.75a.748.748 0 0 1 .75.75v3a.748.748 0 0 1 -.75.75h-3a.748.748 0 0 1 -.75-.75v-3a.748.748 0 0 1 .75-.75zm8 0a.748.748 0 0 1 .75.75v3a.748.748 0 0 1 -.75.75h-3a.748.748 0 0 1 -.75-.75v-3a.748.748 0 0 1 .75-.75zm-8-8a.748.748 0 0 1 .75.75v3a.748.748 0 0 1 -.75.75h-3a.748.748 0 0 1 -.75-.75v-3a.748.748 0 0 1 .75-.75zm8 0a.748.748 0 0 1 .75.75v3a.748.748 0 0 1 -.75.75h-3a.748.748 0 0 1 -.75-.75v-3a.748.748 0 0 1 .75-.75z" fill="none" stroke="#fff" stroke-width="1.5"/></svg>